<?xml version="1.0" encoding="utf-8"?>
<!-- Generator: Adobe Illustrator 23.0.0, SVG Export Plug-In . SVG Version: 6.00 Build 0)  -->
<svg version="1.1" xmlns="http://www.w3.org/2000/svg" xmlns:xlink="http://www.w3.org/1999/xlink" x="0px" y="0px"
	 viewBox="0 0 500 500" style="enable-background:new 0 0 500 500;" xml:space="preserve">
<style type="text/css">
	.st0{fill:#E0E0E0;}
	.st1{fill:#F0F0F0;}
	.st2{fill:#FFFFFF;}
	.st3{fill:#E6E6E6;}
	.st4{display:none;}
	.st5{display:inline;fill:#F0F0F0;}
	.st6{fill:#263238;}
	.st7{fill:#E8505B;}
	.st8{fill:#455A64;}
	.st9{fill:#E8E8E3;}
	.st10{font-family:'Calibri-Light';}
	.st11{font-size:8.299px;}
	.st12{opacity:0.1;}
	.st13{opacity:0.2;fill:#FFFFFF;}
	.st14{opacity:0.2;}
	.st15{fill:#FFBE9D;}
	.st16{fill:#EB996E;}
</style>
<g id="Background_Complete">
	<g>
		<g>
			<g>
				<g>
					<path class="st0" d="M466.9,316.2H303v-94.8h163.9V316.2z M304,315.2h161.9v-92.8H304V315.2z"/>
				</g>
				<g>
					<rect x="325" y="271.9" class="st1" width="108.1" height="3.2"/>
				</g>
				<g>
					<rect x="325" y="283.8" class="st1" width="115.6" height="3.5"/>
				</g>
				<g>
					<rect x="325" y="295.7" class="st1" width="115.6" height="3.5"/>
				</g>
				<g>
					<rect x="325" y="254.8" class="st1" width="37.8" height="8.2"/>
				</g>
				<g>
					<rect x="303.5" y="221.9" class="st0" width="162.9" height="15.1"/>
				</g>
			</g>
			<g>
				<g>
					<g>
						<path class="st2" d="M453.9,234.7c-0.2-0.2,1.9-2.7,4.7-5.7c2.8-2.9,5.2-5.1,5.4-4.9c0.2,0.2-1.9,2.7-4.7,5.7
							C456.5,232.7,454.1,234.9,453.9,234.7z"/>
					</g>
				</g>
				<g>
					<g>
						<path class="st2" d="M464,234.7c-0.2,0.2-2.6-2-5.4-4.9c-2.8-2.9-4.9-5.5-4.7-5.7s2.6,2,5.4,4.9
							C462.1,232,464.2,234.5,464,234.7z"/>
					</g>
				</g>
			</g>
		</g>
		<g>
			<g>
				<g>
					<rect x="102.4" y="34.1" class="st3" width="162.9" height="93.8"/>
				</g>
				<g>
					<rect x="123.8" y="84.1" class="st1" width="108.1" height="3.2"/>
				</g>
				<g>
					<rect x="123.8" y="95.9" class="st1" width="115.6" height="3.5"/>
				</g>
				<g>
					<rect x="123.8" y="107.9" class="st1" width="115.6" height="3.5"/>
				</g>
				<g>
					<rect x="123.8" y="67" class="st1" width="37.8" height="8.2"/>
				</g>
				<g>
					<rect x="102.4" y="34.1" class="st0" width="162.9" height="15.1"/>
				</g>
			</g>
			<g>
				<g>
					<g>
						<path class="st2" d="M252.1,46.8c-0.2-0.2,1.9-2.7,4.7-5.7c2.8-2.9,5.2-5.1,5.4-4.9c0.2,0.2-1.9,2.7-4.7,5.7
							C254.8,44.8,252.3,47,252.1,46.8z"/>
					</g>
				</g>
				<g>
					<g>
						<path class="st2" d="M262.3,46.8c-0.2,0.2-2.6-2-5.4-4.9c-2.8-2.9-4.9-5.5-4.7-5.7c0.2-0.2,2.6,2,5.4,4.9
							C260.4,44.1,262.5,46.6,262.3,46.8z"/>
					</g>
				</g>
			</g>
		</g>
		<g>
			<g>
				<path class="st0" d="M203.5,208.4H39.7v-94.8h163.9V208.4z M40.7,207.4h161.9v-92.8H40.7V207.4z"/>
			</g>
			<g>
				<rect x="61.6" y="164.1" class="st1" width="108.1" height="3.2"/>
			</g>
			<g>
				<rect x="61.6" y="175.9" class="st1" width="115.6" height="3.5"/>
			</g>
			<g>
				<rect x="61.6" y="187.9" class="st1" width="115.6" height="3.5"/>
			</g>
			<g>
				<rect x="61.6" y="146.9" class="st1" width="37.8" height="8.2"/>
			</g>
			<g>
				<rect x="40.2" y="114" class="st0" width="162.9" height="15.1"/>
			</g>
		</g>
		<g>
			<rect x="200.4" y="230.1" class="st3" width="192.3" height="172.2"/>
		</g>
		<g>
			<g>
				<rect x="59.4" y="175.9" class="st1" width="150.6" height="156.5"/>
			</g>
			<g>
				<rect x="59.4" y="175.9" class="st0" width="150.6" height="17.1"/>
			</g>
			<g>
				<path class="st2" d="M71.8,184.2c0,1.8-1.4,3.3-3.2,3.3c-1.7,0-3.2-1.5-3.2-3.3s1.4-3.3,3.2-3.3
					C70.4,180.9,71.8,182.4,71.8,184.2z"/>
			</g>
			<g>
				<path class="st2" d="M84.6,184.2c0,1.8-1.4,3.3-3.2,3.3c-1.7,0-3.2-1.5-3.2-3.3s1.4-3.3,3.2-3.3
					C83.2,180.9,84.6,182.4,84.6,184.2z"/>
			</g>
			<g>
				<path class="st2" d="M97.5,184.2c0,1.8-1.4,3.3-3.2,3.3c-1.7,0-3.2-1.5-3.2-3.3s1.4-3.3,3.2-3.3
					C96.1,180.9,97.5,182.4,97.5,184.2z"/>
			</g>
		</g>
		<g>
			<g>
				<rect x="253.1" y="68.3" class="st1" width="192.3" height="191.7"/>
			</g>
			<g>
				<rect x="253.1" y="68.3" class="st0" width="192.3" height="22.4"/>
			</g>
			<g>
				<path class="st2" d="M269.5,79.3c0,2.4-1.9,4.4-4.2,4.4c-2.3,0-4.2-1.9-4.2-4.4c0-2.4,1.9-4.4,4.2-4.4
					C267.6,74.9,269.5,76.9,269.5,79.3z"/>
			</g>
			<g>
				<path class="st2" d="M285.1,76.3c1.7,1.7,1.8,4.4,0.1,6c-1.6,1.6-4.3,1.6-6-0.1c-1.7-1.7-1.8-4.4-0.1-6
					C280.7,74.6,283.4,74.6,285.1,76.3z"/>
			</g>
			<g>
				<path class="st2" d="M303.2,79.3c0,2.4-1.9,4.4-4.2,4.4c-2.3,0-4.2-1.9-4.2-4.4c0-2.4,1.9-4.4,4.2-4.4
					C301.4,74.9,303.2,76.9,303.2,79.3z"/>
			</g>
		</g>
	</g>
</g>
<g id="Background_Simple" class="st4">
	<path class="st5" d="M359.4,131.4c-36.6-32-86.2,0-134.3,67.3c-48.2,67.4-71.1,39-112,68.7c-41,29.7-51.9,151.3,92.4,139.4
		C349.6,395,455.1,214.9,359.4,131.4z"/>
</g>
<g id="Floor">
	<g>
		<path class="st6" d="M403.8,453.1c0,0.1-69.4,0.3-155.1,0.3c-85.7,0-155.1-0.1-155.1-0.3c0-0.1,69.4-0.3,155.1-0.3
			C334.4,452.9,403.8,453,403.8,453.1z"/>
	</g>
</g>
<g id="Plant">
	<g>
		<g>
			<g>
				<path class="st7" d="M336.2,330.7c-15.4-10.8-19-30.8-18.3-48.8c0.1-3-0.2-6.2,1.2-8.8c1.4-2.6,4.8-4.4,7.5-3.2
					c2.2,1.1,3.2,3.6,4.5,5.8c1.7,2.9,4.1,5.2,7,6.7c1.9,1,4.3,1.6,6.2,0.6c2.6-1.4,2.9-5,2.9-8c0-5.6-0.1-11.1-0.1-16.7
					c0-3,0-6,0.9-8.9c0.9-2.8,3-5.5,5.8-6.3c2.8-0.8,6.4,0.8,7,3.8c0.3,1.2,0,2.5,0.1,3.7c0.1,1.2,0.7,2.6,1.8,3
					c1.2,0.4,2.4-0.5,3.3-1.4c3.1-3,5.2-6.9,7.1-10.8s3.9-7.8,6.7-11.1c2.8-3.3,6.7-5.9,11-6.1c4.3-0.2,8.8,2.4,9.9,6.6
					c1.1,4.2-1.4,8.5-4,11.9c-4,5.1-8.7,9.5-13.9,13.2c-0.9,0.7-2,1.4-2.3,2.5c-0.6,2,1.2,4,3.2,4.6c2.2,0.7,4.6,0.5,7,0.8
					c2.3,0.3,4.9,1.3,5.7,3.5c1.2,3.1-1.3,6.3-3.8,8.4c-5,4.2-10.8,7.5-16.9,9.8c-2.2,0.8-4.5,1.5-6.3,3.1c-1.8,1.5-2.8,4.2-1.8,6.3
					c1.1,2.1,3.8,2.8,6.1,2.4c2.3-0.4,4.4-1.7,6.6-2.5c4.1-1.6,9.4-1.3,12,2.3c1.7,2.3,1.9,5.6,1,8.4c-0.9,2.8-2.6,5.2-4.5,7.4
					c-6.6,7.7-15,13.9-24.5,17.3C354.5,333.3,345.7,334.2,336.2,330.7"/>
			</g>
		</g>
		<g>
			<g>
				<g>
					<path class="st6" d="M396.2,226.7c0,0-0.1,0.1-0.3,0.3c-0.2,0.2-0.5,0.5-0.9,0.8c-0.8,0.7-1.9,1.7-3.4,3.1
						c-2.9,2.7-7,6.8-11.4,12.3c-2.2,2.8-4.5,5.9-7,9.3c-2.4,3.4-5,7.1-7.5,11c-2.5,4-5.1,8.2-7.4,12.8c-1.2,2.3-2.2,4.7-3.2,7.1
						c-1,2.4-2.1,4.9-3.2,7.4c-4.2,10-8,19.7-10.7,28.8c-2.7,9-4.3,17.4-5,24.5c-0.7,7.1-0.6,12.9-0.3,16.9c0.2,2,0.3,3.5,0.4,4.6
						c0.1,0.5,0.1,0.9,0.1,1.2c0,0.3,0,0.4,0,0.4c0,0,0-0.1-0.1-0.4c0-0.3-0.1-0.7-0.2-1.2c-0.2-1-0.4-2.6-0.6-4.6
						c-0.4-4-0.6-9.8,0.1-16.9c0.7-7.1,2.2-15.6,4.9-24.6c2.7-9.1,6.4-18.8,10.6-28.8c1.1-2.5,2.1-5,3.2-7.4c1-2.4,2.1-4.8,3.2-7.1
						c2.3-4.6,4.9-8.9,7.4-12.8c2.6-4,5.1-7.6,7.6-11c2.4-3.4,4.8-6.5,7-9.3c4.5-5.5,8.6-9.6,11.6-12.2c1.5-1.3,2.7-2.3,3.5-3
						c0.4-0.3,0.7-0.6,0.9-0.8C396.1,226.7,396.2,226.7,396.2,226.7z"/>
				</g>
			</g>
		</g>
		<g>
			<g>
				<g>
					<path class="st6" d="M358,276c0,0-0.1-0.4-0.3-1.3c-0.2-0.8-0.3-2-0.6-3.5c-0.4-3-0.9-7.1-1.3-11.7c-0.5-4.6-1-8.7-1.4-11.6
						c-0.2-1.5-0.4-2.7-0.6-3.5c-0.1-0.8-0.2-1.3-0.2-1.3c0,0,0.2,0.4,0.4,1.3c0.2,0.8,0.5,2,0.7,3.5c0.6,3,1.1,7.1,1.6,11.6
						c0.5,4.5,0.9,8.6,1.2,11.7c0.2,1.4,0.3,2.6,0.4,3.5C358.1,275.5,358.1,276,358,276z"/>
				</g>
			</g>
		</g>
		<g>
			<g>
				<g>
					<path class="st6" d="M396.5,268.8c0,0-0.5,0.1-1.5,0.2c-1,0.1-2.4,0.2-4.2,0.4c-3.5,0.4-8.4,1.1-13.7,2.1
						c-5.3,1-10.1,2.1-13.5,3c-1.7,0.4-3.1,0.8-4.1,1.1c-1,0.3-1.5,0.4-1.5,0.4c0,0,0.5-0.2,1.4-0.6c0.9-0.3,2.3-0.8,4-1.3
						c3.4-1,8.2-2.2,13.5-3.2c5.3-1,10.2-1.6,13.7-1.9c1.8-0.2,3.2-0.2,4.2-0.2C395.9,268.8,396.5,268.8,396.5,268.8z"/>
				</g>
			</g>
		</g>
		<g>
			<g>
				<g>
					<path class="st6" d="M341.3,318.7c0,0-0.1-0.2-0.3-0.5c-0.2-0.4-0.4-0.8-0.7-1.4c-0.6-1.2-1.3-3-2.3-5.2
						c-1.9-4.4-4.2-10.6-6.7-17.4c-2.5-6.8-4.8-13-6.6-17.5c-0.9-2.2-1.6-3.9-2.1-5.2c-0.2-0.6-0.4-1-0.6-1.4
						c-0.1-0.3-0.2-0.5-0.2-0.5c0,0,0.1,0.2,0.3,0.5c0.2,0.4,0.4,0.8,0.7,1.4c0.6,1.2,1.3,3,2.3,5.2c1.9,4.4,4.2,10.6,6.7,17.4
						c2.5,6.8,4.8,13,6.6,17.4c0.9,2.2,1.6,3.9,2.1,5.2c0.2,0.6,0.4,1,0.6,1.4C341.3,318.5,341.3,318.7,341.3,318.7z"/>
				</g>
			</g>
		</g>
		<g>
			<g>
				<g>
					<path class="st6" d="M392.4,302.3c0,0-0.2,0.1-0.5,0.2c-0.4,0.1-0.9,0.3-1.5,0.5c-1.4,0.4-3.2,1-5.5,1.8c-4.6,1.5-11,3.6-18,6
						c-7,2.4-13.4,4.5-18.1,5.9c-2.3,0.7-4.2,1.3-5.5,1.6c-0.6,0.2-1.1,0.3-1.5,0.4c-0.3,0.1-0.5,0.1-0.5,0.1c0,0,0.2-0.1,0.5-0.2
						c0.4-0.1,0.9-0.3,1.5-0.5c1.4-0.4,3.2-1,5.5-1.8c4.6-1.5,11-3.6,18-6c7-2.4,13.4-4.5,18-5.9c2.3-0.7,4.2-1.3,5.5-1.6
						c0.6-0.2,1.1-0.3,1.5-0.4C392.2,302.3,392.4,302.2,392.4,302.3z"/>
				</g>
			</g>
		</g>
	</g>
</g>
<g id="Padlock">
	<g>
		<g>
			<g>
				<path class="st7" d="M371.5,59.7l-5.2,1.8l-2.2-6.7c-4.1-12.4-17-19.1-28.9-14.8c-11.9,4.2-18.2,17.8-14.2,30.2l2.2,6.7
					l-5.2,1.8c-4,1.4-6.2,6.1-4.8,10.3l14.3,43.8c1.4,4.3,5.8,6.5,9.9,5.1l53.4-19.1c4.1-1.5,6.3-6.1,4.9-10.4l-14.3-43.8
					C380.1,60.5,375.6,58.2,371.5,59.7z M330.9,66.7c-2.2-6.8,1.2-14.2,7.8-16.6c6.5-2.3,13.6,1.3,15.8,8.1l2.2,6.7l-23.6,8.4
					L330.9,66.7z M360.9,105.6l3.7,11.2c0.2,0.5-0.1,1-0.6,1.1l-5.1,1.8c-0.4,0.1-0.9-0.1-1-0.5l-3.7-11.2c-4-0.2-7.6-2.8-9-7
					c-1.8-5.4,1-11.3,6.2-13.2c5.2-1.9,10.8,1,12.6,6.5C365.3,98.5,363.9,102.9,360.9,105.6z"/>
			</g>
		</g>
		<g>
			<path class="st6" d="M366.2,61.4c0,0.1-9.5,3.7-21.4,8c-11.9,4.3-21.6,7.7-21.6,7.5c0-0.1,9.5-3.7,21.4-8
				C356.4,64.6,366.1,61.3,366.2,61.4z"/>
		</g>
		<g>
			<g>
				<path class="st6" d="M377.5,63.2c0,0,0,0.1,0.1,0.3c0.1,0.2,0.2,0.5,0.3,0.8c0.3,0.7,0.6,1.7,1.1,3c0.9,2.7,2.2,6.5,3.8,11.2
					c1.6,4.7,3.5,10.4,5.6,16.6c1,3.1,2.2,6.4,3.3,9.8c0.5,1.7,0.9,3.6,0.8,5.5c-0.1,0.9-0.3,1.9-0.8,2.8c-0.5,0.9-1.1,1.6-1.9,2.2
					c-1.5,1.2-3.3,1.9-5.1,2.6c-1.7,0.6-3.5,1.2-5.2,1.9c-3.4,1.2-6.6,2.4-9.7,3.5c-6.2,2.2-11.8,4.2-16.5,5.9
					c-4.7,1.6-8.5,3-11.1,3.9c-1.3,0.4-2.3,0.8-3,1c-0.3,0.1-0.6,0.2-0.8,0.3c-0.2,0.1-0.3,0.1-0.3,0.1c0,0,0.1,0,0.3-0.1
					c0.2-0.1,0.5-0.2,0.8-0.3c0.7-0.3,1.7-0.7,3-1.1c2.7-1,6.4-2.4,11.1-4.1c4.7-1.7,10.3-3.7,16.5-6c3.1-1.1,6.4-2.3,9.7-3.5
					c1.7-0.6,3.4-1.2,5.1-1.9c1.7-0.6,3.5-1.3,4.9-2.5c0.7-0.6,1.3-1.3,1.8-2.1c0.4-0.8,0.7-1.7,0.8-2.6c0.2-1.8-0.2-3.6-0.7-5.3
					c-1.1-3.4-2.2-6.7-3.2-9.8c-2.1-6.3-3.9-11.9-5.5-16.6c-1.5-4.7-2.8-8.5-3.7-11.2c-0.4-1.3-0.7-2.3-1-3.1
					c-0.1-0.3-0.2-0.6-0.2-0.8C377.5,63.3,377.5,63.2,377.5,63.2z"/>
			</g>
		</g>
		<g>
			<g>
				<path class="st6" d="M349.3,49.5c0,0-0.5-0.3-1.5-0.7c-1-0.4-2.5-0.8-4.4-0.9c-1.9-0.1-4.2,0.2-6.4,1.2c-2.3,1-4.5,2.7-6.1,5.1
					c-1.6,2.4-2.3,5.1-2.3,7.6c0,2.5,0.5,4.7,1,6.5c0.5,1.8,1.1,3.3,1.4,4.3c0.4,1,0.6,1.6,0.5,1.6c0,0-0.3-0.5-0.7-1.5
					c-0.4-1-1-2.4-1.6-4.2c-0.6-1.8-1.1-4.1-1.1-6.7c0-2.6,0.7-5.4,2.4-7.9c1.7-2.5,4-4.3,6.4-5.3c2.4-1,4.7-1.3,6.6-1.1
					c1.9,0.1,3.4,0.6,4.4,1.1c0.5,0.2,0.9,0.4,1.1,0.6C349.2,49.4,349.4,49.4,349.3,49.5z"/>
			</g>
		</g>
		<g>
			<g>
				<path class="st6" d="M349.8,88.6c0,0,0.2-0.1,0.5-0.3c0.3-0.2,0.9-0.4,1.5-0.6c0.7-0.2,1.6-0.4,2.6-0.4c1-0.1,2.3,0.1,3.5,0.5
					c2.6,0.9,4.9,3.5,6.1,7c0.6,1.7,0.6,3.8,0,5.7c-0.6,2-1.7,3.8-3.3,5.4l0.1-0.3c1.3,3.6,2.8,7.6,4.3,11.7l0.1,0.3l-0.3,0.1
					c-0.7,0.2-1.5,0.5-2.3,0.8c-1.7,0.6-3.3,1.1-5,1.7l-0.2,0.1l-0.1-0.2c-1.4-4.1-2.9-8.1-4-11.8l0.2,0.2c-2-0.1-3.9-1-5.4-2.1
					c-1.5-1.1-2.6-2.5-3.4-4c-0.7-1.5-1.1-3.1-1.1-4.5c0-1.4,0.4-2.8,0.8-3.9c0.9-2.2,2.3-3.6,3.4-4.4
					C349.1,88.8,349.8,88.6,349.8,88.6c0,0-0.6,0.3-1.6,1.1c-1,0.8-2.3,2.2-3.2,4.4c-0.9,2.1-1.2,5.2,0.3,8.1
					c0.7,1.4,1.8,2.8,3.3,3.8c1.4,1.1,3.2,1.9,5.1,2l0.2,0l0,0.2c1.1,3.7,2.6,7.6,4,11.8l-0.3-0.2c1.6-0.5,3.3-1.1,5-1.7
					c0.8-0.3,1.6-0.5,2.3-0.8l-0.2,0.3c-1.5-4.1-2.9-8.1-4.3-11.7l-0.1-0.1l0.1-0.1c1.5-1.5,2.6-3.3,3.2-5.2c0.5-1.9,0.5-3.8,0-5.5
					c-1.1-3.4-3.3-5.9-5.8-6.8c-1.2-0.5-2.4-0.6-3.4-0.6c-1,0-1.9,0.2-2.6,0.4C350.5,88.3,349.8,88.6,349.8,88.6z"/>
			</g>
		</g>
	</g>
</g>
<g id="Device">
	<g>
		<g>
			<g>
				<path class="st8" d="M318.9,377.3l-99.9-0.5c-12-0.1-21.7-9.8-21.7-21.8l1.1-250.4c0.1-12,9.8-21.7,21.9-21.7l99.9,0.5
					c12,0.1,21.7,9.8,21.7,21.8l-1.1,250.4C340.7,367.7,330.9,377.4,318.9,377.3z"/>
			</g>
			<g>
				<path class="st2" d="M320,92L300.6,92c-2.6,0-4.7,2.2-4.7,4.9l0,3.5c0,2.7-2.1,4.9-4.7,4.9l-37.7-0.2c-2.6,0-4.7-2.2-4.7-4.9
					l0-3.5c0-2.7-2.1-4.9-4.7-4.9l-6.8,0l-16.9-0.1c-8.4,0-15.3,6.8-15.3,15.2l-1,244.4c0,8.4,6.8,15.3,15.2,15.3l99.7,0.5
					c8.4,0,15.3-6.8,15.3-15.2l1-244.4C335.2,98.9,328.4,92.1,320,92z"/>
			</g>
			<g>
				<g>
					<g>
						<g>
							<path class="st7" d="M306.6,334.3l-74.1-0.3c-0.8,0-1.4-0.8-1.4-1.9l0.1-19.4c0-1,0.6-1.9,1.4-1.9l74.1,0.3
								c0.8,0,1.4,0.8,1.4,1.9l-0.1,19.4C308,333.5,307.4,334.3,306.6,334.3z"/>
						</g>
						<g>
							<text transform="matrix(0.9566 4.419677e-03 -4.230001e-03 1 256.2621 325.9453)" class="st9 st10 st11">LOG IN</text>
						</g>
					</g>
				</g>
			</g>
		</g>
		<g>
			<g>
				
					<rect x="221.5" y="163.8" transform="matrix(1 4.615699e-03 -4.615699e-03 1 0.7695 -1.08)" class="st7" width="25.7" height="4.7"/>
				
					<rect x="221.5" y="163.8" transform="matrix(1 4.615699e-03 -4.615699e-03 1 0.7695 -1.08)" class="st12" width="25.7" height="4.7"/>
			</g>
			<g>
				<g>
					<path class="st0" d="M322.7,192.8c0,0,0.2,0,0.6-0.1c0.4-0.1,0.9-0.6,1-1.3c0-1.6,0-3.9,0-6.9c0-1.5,0-3.2,0-5
						c0-0.5,0-0.9,0-1.4c0-0.5,0-0.9-0.3-1.3c-0.3-0.4-0.7-0.6-1.2-0.6c-0.5,0-1,0-1.6,0c-4.3,0-9.1,0-14.4,0
						c-21.4-0.1-51-0.2-83.6-0.3c-0.4,0-0.9,0.2-1.1,0.6c-0.3,0.4-0.3,0.8-0.3,1.3c0,1,0,2,0,3c0,2,0,4,0,6c0,1,0,2,0,3
						c0,0.5,0,1,0,1.4c0.1,0.4,0.4,0.7,0.8,0.9c0.2,0.1,0.4,0.1,0.6,0.1l0.7,0l1.5,0c1,0,1.9,0,2.9,0c7.7,0,15.1,0.1,22.2,0.1
						c14.1,0.1,26.9,0.2,37.6,0.2c10.7,0.1,19.3,0.2,25.3,0.2c3,0,5.3,0.1,6.9,0.1c0.8,0,1.4,0,1.8,0
						C322.4,192.8,322.7,192.8,322.7,192.8s-0.2,0-0.6,0c-0.4,0-1,0-1.8,0c-1.6,0-3.9,0-6.9,0c-6,0-14.7,0-25.4,0
						c-10.7,0-23.5-0.1-37.6-0.1c-7.1,0-14.5-0.1-22.2-0.1c-1,0-1.9,0-2.9,0l-1.5,0l-0.7,0c-0.3,0-0.6,0-0.8-0.1
						c-0.5-0.2-0.9-0.7-1.1-1.2c-0.1-0.3-0.1-0.6-0.1-0.8l0-0.7c0-1,0-2,0-3c0-2,0-4,0-6c0-1,0-2,0-3c0-0.3,0-0.5,0-0.8
						c0-0.3,0.2-0.6,0.3-0.8c0.3-0.5,0.9-0.8,1.5-0.8c32.7,0.2,62.2,0.3,83.6,0.5c5.3,0,10.2,0.1,14.4,0.1c0.5,0,1.1,0,1.6,0
						c0.6,0,1.1,0.3,1.4,0.7c0.3,0.4,0.3,1,0.3,1.5c0,0.5,0,0.9,0,1.4c0,1.8,0,3.5,0,5c0,3-0.1,5.3-0.1,6.9
						c-0.1,0.8-0.7,1.3-1.1,1.4C322.9,192.9,322.7,192.8,322.7,192.8z"/>
				</g>
			</g>
			<g>
				
					<rect x="228.4" y="182" transform="matrix(1 4.619129e-03 -4.619129e-03 1 0.8536 -1.1617)" class="st7" width="47" height="4.4"/>
				
					<rect x="228.4" y="182" transform="matrix(1 4.619129e-03 -4.619129e-03 1 0.8536 -1.1617)" class="st13" width="47" height="4.4"/>
			</g>
			<g>
				
					<rect x="221.3" y="206.9" transform="matrix(1 4.615683e-03 -4.615683e-03 1 0.9683 -1.0787)" class="st7" width="25.7" height="4.7"/>
				
					<rect x="221.3" y="206.9" transform="matrix(1 4.615683e-03 -4.615683e-03 1 0.9683 -1.0787)" class="st12" width="25.7" height="4.7"/>
			</g>
			<g>
				<g>
					<path class="st0" d="M322,235.9c0,0,0.2,0,0.6-0.1c0.4-0.1,0.9-0.4,1.3-1.1c0.2-0.4,0.2-0.8,0.2-1.3c0-0.5,0-1,0-1.6
						c0-1.2,0-2.5,0-4c0-1.5,0-3.2,0-5c0-0.5,0-0.9,0-1.4c0-0.5,0-0.9-0.3-1.3c-0.2-0.4-0.6-0.7-1.1-0.8c-0.4-0.1-1-0.1-1.5-0.1
						c-4.2,0-9.1,0-14.4,0c-21.3-0.1-50.8-0.2-83.3-0.3c-0.9,0-1.7,0.7-1.8,1.6c0,1,0,2,0,3c0,2,0,4,0,6c0,1,0,2,0,3
						c0,0.5-0.1,1,0.1,1.4c0.1,0.4,0.4,0.8,0.7,1c0.4,0.2,0.8,0.3,1.2,0.3l1.5,0c1,0,1.9,0,2.9,0c7.7,0,15.1,0.1,22.1,0.1
						c14.1,0.1,26.8,0.2,37.5,0.2c10.7,0.1,19.3,0.2,25.3,0.2c3,0,5.3,0.1,6.9,0.1c0.8,0,1.4,0,1.8,0
						C321.8,235.9,322,235.9,322,235.9s-0.2,0-0.6,0c-0.4,0-1,0-1.8,0c-1.6,0-3.9,0-6.9,0c-6,0-14.6,0-25.3,0
						c-10.7,0-23.4-0.1-37.5-0.1c-7.1,0-14.5-0.1-22.1-0.1c-1,0-1.9,0-2.9,0l-1.5,0c-0.5,0-1.1-0.1-1.5-0.4
						c-0.5-0.3-0.8-0.8-0.9-1.3c-0.1-0.6-0.1-1-0.1-1.5c0-1,0-2,0-3c0-2,0-4,0-6c0-1,0-2,0-3.1c0.1-1.2,1.2-2.1,2.3-2.1
						c32.5,0.2,62,0.3,83.3,0.5c5.3,0,10.2,0.1,14.4,0.1c0.5,0,1.1-0.1,1.6,0.1c0.5,0.2,1,0.5,1.2,1c0.3,0.4,0.3,1,0.3,1.5
						c0,0.5,0,0.9,0,1.4c0,1.8,0,3.5,0,5c0,1.5,0,2.8,0,4c0,0.6,0,1.1,0,1.6c0,0.5,0,0.9-0.2,1.3c-0.4,0.7-1,1-1.3,1.1
						C322.2,235.9,322,235.9,322,235.9z"/>
				</g>
			</g>
			<g>
				
					<rect x="221.1" y="251.8" transform="matrix(1 4.596258e-03 -4.596258e-03 1 1.1706 -1.0728)" class="st7" width="25.7" height="4.7"/>
				
					<rect x="221.1" y="251.8" transform="matrix(1 4.596258e-03 -4.596258e-03 1 1.1706 -1.0728)" class="st12" width="25.7" height="4.7"/>
			</g>
			<g>
				<g>
					<path class="st0" d="M321.8,280.8c0,0,0.2,0,0.6-0.1c0.4-0.1,0.9-0.4,1.3-1.1c0.2-0.4,0.2-0.8,0.2-1.3c0-0.5,0-1,0-1.6
						c0-1.2,0-2.5,0-4c0-1.5,0-3.2,0-5c0-0.5,0-0.9,0-1.4c0-0.5,0-0.9-0.3-1.3c-0.2-0.4-0.6-0.7-1.1-0.8c-0.4-0.1-1-0.1-1.5-0.1
						c-4.2,0-9.1,0-14.4,0c-21.3-0.1-50.8-0.2-83.3-0.3c-0.9,0-1.7,0.7-1.8,1.6c0,1,0,2,0,3c0,2,0,4,0,6c0,1,0,2,0,3
						c0,0.5-0.1,1,0.1,1.4c0.1,0.4,0.4,0.8,0.7,1c0.4,0.2,0.8,0.3,1.2,0.3l1.5,0c1,0,1.9,0,2.9,0c7.7,0,15.1,0.1,22.1,0.1
						c14.1,0.1,26.8,0.2,37.5,0.2c10.7,0.1,19.3,0.2,25.3,0.2c3,0,5.3,0.1,6.9,0.1c0.8,0,1.4,0,1.8,0
						C321.6,280.8,321.8,280.8,321.8,280.8s-0.2,0-0.6,0c-0.4,0-1,0-1.8,0c-1.6,0-3.9,0-6.9,0c-6,0-14.6,0-25.3,0
						c-10.7,0-23.4-0.1-37.5-0.1c-7.1,0-14.5-0.1-22.1-0.1c-1,0-1.9,0-2.9,0l-1.5,0c-0.5,0-1.1-0.1-1.5-0.4
						c-0.5-0.3-0.8-0.8-0.9-1.3c-0.1-0.6-0.1-1-0.1-1.5c0-1,0-2,0-3c0-2,0-4,0-6c0-1,0-2,0-3.1c0.1-1.2,1.2-2.1,2.3-2.1
						c32.5,0.2,62,0.3,83.3,0.5c5.3,0,10.2,0.1,14.4,0.1c0.5,0,1.1-0.1,1.6,0.1c0.5,0.2,1,0.5,1.2,1c0.3,0.4,0.3,1,0.3,1.5
						c0,0.5,0,0.9,0,1.4c0,1.8,0,3.5,0,5c0,1.5,0,2.8,0,4c0,0.6,0,1.1,0,1.6c0,0.5,0,1-0.2,1.3c-0.4,0.7-1,1-1.3,1.1
						C322,280.8,321.8,280.8,321.8,280.8z"/>
				</g>
			</g>
			<g>
				
					<rect x="228.2" y="225.1" transform="matrix(1 4.619090e-03 -4.619090e-03 1 1.0525 -1.1604)" class="st7" width="47" height="4.4"/>
				
					<rect x="228.2" y="225.1" transform="matrix(1 4.619090e-03 -4.619090e-03 1 1.0525 -1.1604)" class="st13" width="47" height="4.4"/>
			</g>
			<g>
				<g>
					<g>
						<path class="st7" d="M232.5,272.6c0,1.2-0.9,2.2-2.1,2.2c-1.1,0-2.1-1-2-2.2c0-1.2,0.9-2.2,2.1-2.2
							C231.6,270.4,232.5,271.4,232.5,272.6z"/>
					</g>
					<g>
						<path class="st7" d="M238.9,272.7c0,1.2-0.9,2.2-2.1,2.2c-1.1,0-2.1-1-2-2.2c0-1.2,0.9-2.2,2.1-2.2
							C238,270.5,238.9,271.5,238.9,272.7z"/>
					</g>
					<g>
						<path class="st7" d="M245.3,272.7c0,1.2-0.9,2.2-2.1,2.2c-1.1,0-2.1-1-2-2.2c0-1.2,0.9-2.2,2.1-2.2
							C244.3,270.5,245.3,271.5,245.3,272.7z"/>
					</g>
					<g>
						<path class="st7" d="M251.6,272.7c0,1.2-0.9,2.2-2.1,2.2c-1.1,0-2.1-1-2-2.2c0-1.2,0.9-2.2,2.1-2.2
							C250.7,270.5,251.6,271.5,251.6,272.7z"/>
					</g>
					<g>
						<path class="st7" d="M258,272.8c0,1.2-0.9,2.2-2.1,2.2c-1.1,0-2.1-1-2-2.2c0-1.2,0.9-2.2,2.1-2.2
							C257.1,270.6,258,271.5,258,272.8z"/>
					</g>
					<g>
						<path class="st7" d="M264.4,272.8c0,1.2-0.9,2.2-2.1,2.2c-1.1,0-2.1-1-2-2.2c0-1.2,0.9-2.2,2.1-2.2
							C263.5,270.6,264.4,271.6,264.4,272.8z"/>
					</g>
					<g>
						<path class="st7" d="M270.7,272.8c0,1.2-0.9,2.2-2.1,2.2c-1.1,0-2.1-1-2-2.2c0-1.2,0.9-2.2,2.1-2.2
							C269.8,270.6,270.8,271.6,270.7,272.8z"/>
					</g>
					<g>
						<path class="st7" d="M277.1,272.8c0,1.2-0.9,2.2-2.1,2.2c-1.1,0-2.1-1-2-2.2c0-1.2,0.9-2.2,2.1-2.2
							C276.2,270.6,277.1,271.6,277.1,272.8z"/>
					</g>
					<g>
						<path class="st7" d="M283.5,272.9c0,1.2-0.9,2.2-2.1,2.2c-1.1,0-2.1-1-2-2.2c0-1.2,0.9-2.2,2.1-2.2
							C282.6,270.7,283.5,271.7,283.5,272.9z"/>
					</g>
				</g>
				<g class="st14">
					<g>
						<path class="st2" d="M232.5,272.6c0,1.2-0.9,2.2-2.1,2.2c-1.1,0-2.1-1-2-2.2c0-1.2,0.9-2.2,2.1-2.2
							C231.6,270.4,232.5,271.4,232.5,272.6z"/>
					</g>
					<g>
						<path class="st2" d="M238.9,272.7c0,1.2-0.9,2.2-2.1,2.2c-1.1,0-2.1-1-2-2.2c0-1.2,0.9-2.2,2.1-2.2
							C238,270.5,238.9,271.5,238.9,272.7z"/>
					</g>
					<g>
						<path class="st2" d="M245.3,272.7c0,1.2-0.9,2.2-2.1,2.2c-1.1,0-2.1-1-2-2.2c0-1.2,0.9-2.2,2.1-2.2
							C244.3,270.5,245.3,271.5,245.3,272.7z"/>
					</g>
					<g>
						<path class="st2" d="M251.6,272.7c0,1.2-0.9,2.2-2.1,2.2c-1.1,0-2.1-1-2-2.2c0-1.2,0.9-2.2,2.1-2.2
							C250.7,270.5,251.6,271.5,251.6,272.7z"/>
					</g>
					<g>
						<path class="st2" d="M258,272.8c0,1.2-0.9,2.2-2.1,2.2c-1.1,0-2.1-1-2-2.2c0-1.2,0.9-2.2,2.1-2.2
							C257.1,270.6,258,271.5,258,272.8z"/>
					</g>
					<g>
						<path class="st2" d="M264.4,272.8c0,1.2-0.9,2.2-2.1,2.2c-1.1,0-2.1-1-2-2.2c0-1.2,0.9-2.2,2.1-2.2
							C263.5,270.6,264.4,271.6,264.4,272.8z"/>
					</g>
					<g>
						<path class="st2" d="M270.7,272.8c0,1.2-0.9,2.2-2.1,2.2c-1.1,0-2.1-1-2-2.2c0-1.2,0.9-2.2,2.1-2.2
							C269.8,270.6,270.8,271.6,270.7,272.8z"/>
					</g>
					<g>
						<path class="st2" d="M277.1,272.8c0,1.2-0.9,2.2-2.1,2.2c-1.1,0-2.1-1-2-2.2c0-1.2,0.9-2.2,2.1-2.2
							C276.2,270.6,277.1,271.6,277.1,272.8z"/>
					</g>
					<g>
						<path class="st2" d="M283.5,272.9c0,1.2-0.9,2.2-2.1,2.2c-1.1,0-2.1-1-2-2.2c0-1.2,0.9-2.2,2.1-2.2
							C282.6,270.7,283.5,271.7,283.5,272.9z"/>
					</g>
				</g>
			</g>
			<g>
				<g>
					<path class="st7" d="M274.4,128.5c1.3-0.6,2.3-2,2.3-3.6c0-2.1-1.6-3.9-3.6-3.9c-2,0-3.6,1.7-3.7,3.9c0,1.7,1,3.1,2.3,3.6
						c-5.6,0.8-5.3,6.9-5.3,6.9l13.2,0.1C279.7,135.5,280,129.3,274.4,128.5z"/>
					<path class="st12" d="M274.4,128.5c1.3-0.6,2.3-2,2.3-3.6c0-2.1-1.6-3.9-3.6-3.9c-2,0-3.6,1.7-3.7,3.9c0,1.7,1,3.1,2.3,3.6
						c-5.6,0.8-5.3,6.9-5.3,6.9l13.2,0.1C279.7,135.5,280,129.3,274.4,128.5z"/>
				</g>
				<g>
					
						<rect x="248.7" y="139.4" transform="matrix(1 4.615101e-03 -4.615101e-03 1 0.6591 -1.2554)" class="st7" width="47.2" height="5.6"/>
					
						<rect x="248.7" y="139.4" transform="matrix(1 4.615101e-03 -4.615101e-03 1 0.6591 -1.2554)" class="st13" width="47.2" height="5.6"/>
				</g>
			</g>
		</g>
	</g>
</g>
<g id="Speech_Bubble">
	<g>
		<g>
			<g>
				<path class="st7" d="M122.5,168.7c0,0-0.2,0-0.5,0.1c-0.3,0-0.8,0.1-1.4,0.1c-0.6,0-1.3,0.1-2.2,0.3c-0.4,0.1-0.9,0.1-1.4,0.3
					c-0.5,0.1-1,0.3-1.5,0.4c-2.2,0.7-4.8,1.8-7.4,3.7c-2.6,1.9-5.2,4.6-7.3,8.1c-1.1,1.7-1.8,3.7-2.5,5.8c-0.6,2.1-1.1,4.4-1.1,6.8
					c-0.1,1.2,0,2.4,0.1,3.6c0,0.6,0.2,1.2,0.2,1.8c0.1,0.6,0.2,1.2,0.4,1.9c0.5,2.5,1.5,4.9,2.8,7.3c2.6,4.7,6.9,8.7,12.2,11.1
					c2.7,1.2,5.6,1.8,8.6,1.9c3,0.2,6.1-0.3,9-1.3l0.9-0.3l0.1,0l0.1,0.1c4.3,2.2,8.5,4.3,12.6,6.4l-0.4,0.3
					c-1.3-4.2-2.7-8.2-3.9-12.1l0-0.1l0.1-0.1c3.2-3.2,5.4-7.1,6.6-11c1.2-4,1.4-8,1-11.7c-0.5-3.7-1.7-7.1-3.3-9.9
					c-1.6-2.9-3.6-5.2-5.7-7c-2.1-1.8-4.3-3-6.2-3.9c-2-0.8-3.8-1.4-5.2-1.6c-0.7-0.1-1.4-0.2-2-0.3c-0.6,0-1-0.1-1.4-0.1
					c-0.4,0-0.7-0.1-0.9-0.1C122.6,168.7,122.5,168.7,122.5,168.7c0,0,0.1,0,0.3,0c0.2,0,0.5,0,0.9,0c0.4,0,0.9,0,1.5,0.1
					c0.6,0.1,1.2,0.2,2,0.3c1.5,0.3,3.3,0.8,5.3,1.6c2,0.9,4.2,2.1,6.3,3.9c2.1,1.8,4.2,4.1,5.8,7c1.7,2.9,2.9,6.3,3.4,10.1
					c0.5,3.8,0.3,7.9-0.9,11.9c-1.2,4-3.5,8-6.7,11.2l0.1-0.3c1.3,3.9,2.6,7.9,3.9,12.1l0.2,0.6l-0.6-0.3c-4.1-2.1-8.3-4.2-12.6-6.4
					l0.2,0l-0.9,0.3c-3,1-6.1,1.5-9.2,1.3c-3.1-0.1-6.1-0.8-8.8-2c-5.4-2.4-9.8-6.5-12.4-11.3c-1.3-2.4-2.3-4.9-2.8-7.4
					c-0.2-0.6-0.3-1.3-0.4-1.9c-0.1-0.6-0.2-1.2-0.2-1.9c0-1.2-0.2-2.5-0.1-3.7c0-2.4,0.6-4.7,1.2-6.9c0.7-2.1,1.5-4.1,2.6-5.9
					c2.1-3.5,4.8-6.3,7.4-8.1c2.7-1.9,5.3-3,7.5-3.6c0.6-0.1,1.1-0.3,1.6-0.4c0.5-0.1,1-0.2,1.4-0.2c0.9-0.1,1.6-0.3,2.2-0.2
					c0.6,0,1,0,1.4,0C122.3,168.7,122.5,168.7,122.5,168.7z"/>
			</g>
		</g>
		<g>
			<g>
				<path class="st7" d="M128.2,192h-1.8l-4-5.6v-3.7c0,0-2.9-0.2-2.5,4.7c0.3,4.8,0,3.6,0,3.6s-6.1,0-6.6,0.6
					c-0.4,0.4-0.5,6.4-0.6,9.7c0,1.6,1,3.2,2.5,3.6c0.2,0.1,0.4,0.1,0.7,0.1c1.5,0,9.2-1.2,9.2-1.2h3.2V192z"/>
			</g>
			<g>
				<polygon class="st7" points="133.5,191 132.3,203.7 129.2,203.7 129.2,191.3 				"/>
			</g>
		</g>
	</g>
</g>
<g id="Character">
	<g>
		<g>
			<g>
				<g>
					<path class="st7" d="M171.1,448.3v-8.6l-15.3-0.1l-0.1,12.9l1,0.1c4.2,0.3,21.5,0.7,24.4-0.2
						C184.2,451.5,171.1,448.3,171.1,448.3z"/>
				</g>
				<g>
					<g>
						<path class="st6" d="M181.4,451.7c0,0.1-5.7,0.3-12.8,0.3c-7.1,0-12.8-0.1-12.8-0.3c0-0.1,5.7-0.3,12.8-0.3
							C175.6,451.4,181.4,451.5,181.4,451.7z"/>
					</g>
				</g>
				<g>
					<g>
						<path class="st6" d="M171.4,450.1c-0.1-0.1,0-0.5,0.3-1c0.3-0.4,0.7-0.7,0.8-0.6c0.1,0.1-0.1,0.5-0.4,0.9
							C171.8,449.8,171.5,450.2,171.4,450.1z"/>
					</g>
				</g>
				<g>
					<g>
						<path class="st6" d="M172.4,450.7c-0.1,0-0.1-0.6,0.2-1.1c0.3-0.5,0.7-0.9,0.8-0.8c0.1,0.1-0.1,0.5-0.4,1
							C172.8,450.3,172.5,450.7,172.4,450.7z"/>
					</g>
				</g>
				<g>
					<g>
						<path class="st6" d="M160.4,451.6c-0.1,0-0.3-0.2-0.6-0.6c-0.3-0.4-0.8-0.9-1.3-1.3c-0.6-0.4-1.2-0.7-1.7-0.7
							c-0.5-0.1-0.8,0-0.8-0.1c0-0.1,0.3-0.3,0.8-0.3c0.5,0,1.3,0.2,2,0.7c0.6,0.5,1.1,1.1,1.3,1.5
							C160.3,451.3,160.4,451.6,160.4,451.6z"/>
					</g>
				</g>
				<g>
					<g>
						<path class="st6" d="M171.5,448.5c0.1,0.1-0.2,0.4-0.6,0.6c-0.4,0.2-0.8,0.1-0.9,0c0-0.1,0.3-0.3,0.7-0.5
							C171,448.4,171.4,448.4,171.5,448.5z"/>
					</g>
				</g>
				<g>
					<g>
						<path class="st6" d="M171.2,447.7c0,0.1-0.4,0.3-0.9,0.3c-0.5,0-0.9-0.1-0.9-0.2c0-0.1,0.4-0.3,0.9-0.3
							C170.8,447.4,171.2,447.5,171.2,447.7z"/>
					</g>
				</g>
			</g>
			<g>
				<g>
					<path class="st7" d="M208.9,448.3l0-8.6l-15.3-0.1l-0.1,12.8l1,0.1c4.2,0.3,21.5,0.8,24.4-0.1
						C221.9,451.5,208.9,448.3,208.9,448.3z"/>
				</g>
				<g>
					<g>
						<path class="st6" d="M219.1,451.7c0,0.1-5.7,0.3-12.8,0.3c-7.1,0-12.8-0.1-12.8-0.3c0-0.1,5.7-0.3,12.8-0.3
							C213.4,451.4,219.1,451.5,219.1,451.7z"/>
					</g>
				</g>
				<g>
					<g>
						<path class="st6" d="M209.2,450.1c-0.1-0.1,0-0.5,0.3-1c0.3-0.4,0.7-0.7,0.8-0.6c0.1,0.1-0.1,0.5-0.4,0.9
							C209.6,449.8,209.3,450.2,209.2,450.1z"/>
					</g>
				</g>
				<g>
					<g>
						<path class="st6" d="M210.1,450.7c-0.1,0-0.1-0.6,0.2-1.1c0.3-0.5,0.7-0.9,0.8-0.8c0.1,0.1-0.1,0.5-0.4,1
							C210.6,450.3,210.3,450.7,210.1,450.7z"/>
					</g>
				</g>
				<g>
					<g>
						<path class="st6" d="M198.1,451.6c-0.1,0-0.3-0.2-0.6-0.6c-0.3-0.4-0.8-0.9-1.3-1.3c-0.6-0.4-1.2-0.7-1.7-0.7
							c-0.5-0.1-0.8,0-0.8-0.1c0-0.1,0.3-0.3,0.8-0.3c0.5,0,1.3,0.2,2,0.7c0.6,0.5,1.1,1.1,1.3,1.5
							C198.1,451.3,198.2,451.6,198.1,451.6z"/>
					</g>
				</g>
				<g>
					<g>
						<path class="st6" d="M209.2,448.5c0.1,0.1-0.2,0.4-0.6,0.6c-0.4,0.2-0.8,0.1-0.9,0c0-0.1,0.3-0.3,0.7-0.5
							C208.8,448.4,209.1,448.4,209.2,448.5z"/>
					</g>
				</g>
				<g>
					<g>
						<path class="st6" d="M209,447.7c0,0.1-0.4,0.3-0.9,0.3c-0.5,0-0.9-0.1-0.9-0.2c0-0.1,0.4-0.3,0.9-0.3
							C208.6,447.4,209,447.5,209,447.7z"/>
					</g>
				</g>
			</g>
			<g>
				<path class="st15" d="M265.4,194.4c-0.4-0.4-1.4-0.2-1.4-0.2s0.2-1.2,0-1.7c-0.2-0.6-1.4-0.5-1.4-0.5s-0.1-0.5,0-1.4
					c0-0.2-0.1-0.4-0.3-0.5c-0.6-0.4-1.9-0.3-1.9-0.3c-0.8-0.6,2.4-4.9,3.5-6.3c1.1-1.4,1-2.5-0.1-2.5c-0.7,0-4.4,4.2-5.5,5.6
					c-1.1,1.4-4.1,5.3-4.2,2.2c-0.1-3.1-1.4-5.5-2.1-5.9c-0.8-0.4-1.6,0.5-1.2,1.4c0.4,0.7,0.6,2.1,0.7,3.1c0.1,0.8,0.1,1.7-0.1,2.5
					c-0.5,2.3-1.1,3.9-1.3,4.5l-0.1,0c0,0-21.8,20.9-23.4,22.4c-1.4,1.3-29.8-1.6-35.5-2.2c-1.6-0.2-3.9-0.5-5.8-0.4
					c-2.5,0.1-2.9,0.5-5.4,0.5c-7.6,0.1-13.8,0.8-18.5,1.6c-5.7,1-10.3,5-12.1,10.5c-5.7,17.9-18.7,60.3-21,84.1
					c-1.8,3.4-3.9,7.4-4.7,9.7c-1.6,4.4-1.2,4.5-0.7,4.6c1.5,0.3,3.1-7.6,3.7-5.7c0.6,1.9-3.2,9.4-1.6,9.6c2,0.3,3.6-8,3.8-8.7
					c0.2-0.7,1.2-0.4,1,0.2c-0.3,0.9-3.1,10.2-1.1,10.5c1.1,0.2,1.2-1.8,1.2-1.8s2-8.9,2.9-8.8c0.9,0.2-0.1,5.5-0.5,7.2
					c-0.5,1.7,0.2,2.7,1.1,2.2c0.6-0.3,2.2-5.6,2.6-7.4c0.4-1.7,1.5-6.6,2.9-3.8c1.4,2.8,3.5,4.4,4.4,4.4c0.9,0,1.3-1.2,0.5-1.8
					c-0.6-0.5-1.4-1.6-1.9-2.5c-0.4-0.7-0.8-1.5-1-2.3c-0.7-3.2-0.7-5.1-0.7-5.1l-0.2-1c2.2-11.1,8.7-43.6,18-64.4l3.8,7.9l1.7,5.8
					l-10.2,25.1l43.4-0.6l-6.5-24.9l7.9-26l0,0c8.5,0.2,30.4,0.5,34-1.1c4.6-2,28.3-31.9,28.3-31.9h0c1.6-1.3,3.2-2.6,4.4-3.8
					C264.8,196.5,266.2,195.3,265.4,194.4z"/>
			</g>
			<g>
				<g>
					<path class="st7" d="M151.4,266.4c1.3-4.3,7.7-25.6,7.7-25.6s3.2,17.3,2.3,19.4c-1,2.4-2.7,5.2-2.7,5.2
						c-7.3,11.2-6.4,16.8-6.4,16.8l44.3-1.4c0.1-6.2-3.6-20.6-4.3-22.9c-0.8-2.3,1.8-9.8,1.8-9.8s5-5.1,4.8-7.7
						c-0.4-5.3-0.9-7-0.9-7l27,1l-0.8-18.3l-38.8-3.9c-1.3,3.8-13.6,1.9-13.6,1.9c-13.2,0.4-14,2.9-19.5,7.1
						c-5.5,4.3-14.6,40.8-14.6,40.8L151.4,266.4z"/>
				</g>
				<g>
					<g>
						<path class="st6" d="M177.6,262.1c0,0.1-0.9,0.1-2.3,0.1c-1.4,0-3.4-0.1-5.6-0.3c-2.2-0.2-4.2-0.5-5.6-0.8
							c-1.4-0.3-2.3-0.5-2.3-0.6c0-0.1,0.9,0,2.3,0.2c1.4,0.2,3.4,0.4,5.6,0.7c2.2,0.2,4.2,0.4,5.6,0.5
							C176.7,261.9,177.6,262,177.6,262.1z"/>
					</g>
				</g>
				<g>
					<g>
						<path class="st6" d="M180.7,258.3c0,0.1-0.9,0.4-2.4,0.8c-1.5,0.4-3.7,0.9-6.1,1.2c-2.4,0.3-4.6,0.3-6.2,0.3
							c-1.6,0-2.5-0.2-2.5-0.2c0-0.1,1-0.1,2.5-0.1c1.6,0,3.7-0.2,6.1-0.4c2.4-0.3,4.5-0.7,6-1C179.7,258.4,180.6,258.2,180.7,258.3
							z"/>
					</g>
				</g>
				<g>
					<g>
						<path class="st6" d="M195.6,241.5c0.1,0,0,0.9-0.3,2.3c-0.3,1.4-0.7,3.3-1.2,5.4c-0.5,2.1-1,4-1.4,5.3
							c-0.4,1.3-0.7,2.2-0.8,2.1c-0.1,0,0.1-0.9,0.4-2.2c0.4-1.6,0.8-3.4,1.3-5.3c0.5-2,0.9-3.8,1.3-5.3
							C195.3,242.3,195.5,241.5,195.6,241.5z"/>
					</g>
				</g>
				<g>
					<g>
						<path class="st6" d="M151.9,263.8c0,0.1-3.1-0.6-6.8-1.6c-3.7-1-6.7-2-6.7-2.1c0-0.1,3.1,0.6,6.8,1.6
							C148.9,262.8,151.9,263.7,151.9,263.8z"/>
					</g>
				</g>
				<g>
					<g>
						<path class="st6" d="M198.6,233.1c0,0-0.4,0.1-1.1,0c-0.7-0.1-1.8-0.2-3-0.7c-1.2-0.5-2.7-1.2-4-2.4c-1.3-1.2-2.5-2.8-3.3-4.7
							c-0.8-1.9-1-3.9-0.9-5.6c0.1-1.8,0.6-3.3,1.4-4.5c0.8-1.1,1.8-1.7,2.5-1.9c0.4-0.1,0.7-0.1,0.9-0.1c0.2,0,0.3,0,0.3,0
							c0,0-0.4,0-1.1,0.3c-0.7,0.2-1.6,0.8-2.3,1.9c-1.4,2.1-1.7,6-0.3,9.7c0.7,1.8,1.8,3.4,3.1,4.5c1.3,1.2,2.6,1.9,3.8,2.4
							C196.9,233.1,198.6,233,198.6,233.1z"/>
					</g>
				</g>
				<g>
					<g>
						<path class="st6" d="M221.9,234c-0.1,0-0.3-4.1-0.2-9.2c0-5.1,0.1-9.2,0.3-9.2c0.1,0,0.3,4.1,0.2,9.2
							C222.2,229.9,222,234,221.9,234z"/>
					</g>
				</g>
			</g>
			<g>
				<g>
					<path class="st15" d="M185.2,213.3c0.1-2.2,0.3-4.8,0.3-4.8s5.5-0.6,5.9-6.3c0.3-5.7,0-18.8,0-18.8l-10.1-5.1l-11.1,8.7
						l1.7,28.5l10.2,0.6C183.7,216.2,185.1,215,185.2,213.3z"/>
				</g>
				<g>
					<g>
						<path class="st16" d="M186.2,197.7c0,0,0,0.1-0.1,0.2c-0.1,0.1-0.3,0.3-0.6,0.3c-0.6,0-1.3-0.7-1.5-1.6
							c-0.1-0.4-0.1-0.9,0-1.3c0.1-0.4,0.3-0.8,0.6-0.9c0.1-0.1,0.3,0,0.4,0c0.1,0.1,0.2,0.1,0.2,0.2c0.1,0.2,0,0.3,0,0.3
							c0,0,0-0.1-0.1-0.2c-0.1-0.1-0.3-0.2-0.5-0.1c-0.2,0.1-0.4,0.4-0.4,0.7c-0.1,0.3-0.1,0.7,0,1.1c0.2,0.8,0.7,1.4,1.2,1.5
							c0.2,0,0.4-0.1,0.5-0.1C186.1,197.8,186.2,197.7,186.2,197.7z"/>
					</g>
				</g>
				<g>
					<path class="st6" d="M194.8,180.3c-0.8-2.6-3.6-3.9-6.1-4.6c-3.9-1.1-8.1-1.6-11.8-0.2c-3.8,1.4-8.3,3.8-8.3,8
						c-2.2-0.2-3.5,1.8-4.4,4.2c-0.5,1.4-0.9,3-0.9,4.6l0,0c-0.3,5.5-1.8,13-5.4,17c-2,2.2-4.8,3.8-5.9,6.6c-1,2.4-0.5,5.3-1.4,7.7
						c-0.8,2.2-2.7,3.7-4,5.6c-2.9,4.1-3.1,9.8-1,14.4c2.1,4.6,6.3,7.9,10.9,9.4c4.6,1.5,9.7,1.4,14.4,0.1c3.5-0.9,6.9-2.4,9.6-4.8
						c2.8-2.4,4.9-5.7,5.5-9.3c0.7-4.1-0.4-8.2-1.3-12.3c-2.7-12.8-1.9-13.5,1.5-25.4c0.1-0.2,0.1-0.4,0.2-0.6
						c0-0.2,0.1-0.3,0.1-0.5l0,0c0.1-0.5,0.2-0.9,0.2-1.4c-1,0.4-2.1,0.1-2.9-0.6c-0.7-0.8-1-2-0.7-3c0.4-1.2,1.5-2,2.6-2.4
						s2.3-0.7,3.4-1.2c2.3-1.1,3.9-3.4,5-5.8C194.8,184,195.3,182.1,194.8,180.3z"/>
				</g>
				<g>
					<g>
						<path class="st7" d="M186.6,198c0,0,0.2,0.4,0.5,1c0.3,0.6,0.7,1.5,1.1,2.5l0.1,0.2l-0.2,0c-0.3,0-0.7,0.1-1,0.1
							c-0.7,0-1.3,0.1-2,0.1c-0.1,0-0.2-0.1-0.3-0.2c0-0.1,0-0.2,0-0.3c0-0.2,0.1-0.3,0.1-0.4l0.2-0.7c0.2-0.9,0.4-1.4,0.4-1.4
							c0,0,0,0.6-0.2,1.4l-0.1,0.7c-0.1,0.2-0.1,0.6,0,0.6c0.5,0,1.2-0.1,1.9-0.2c0.3,0,0.7-0.1,1-0.1l-0.1,0.2
							c-0.4-1-0.8-1.9-1-2.6C186.7,198.4,186.6,198,186.6,198z"/>
					</g>
				</g>
			</g>
			<g>
				<g>
					<path class="st6" d="M152.4,282.2l44.3-1.4l19.3,75.3l-3.6,86.4H189l2.9-84.6l-17.2-52.4l2.6,140.4l-23.7,0.3l-2.5-131.9
						c-0.1-3.7-1.3-11.9-0.9-15.6L152.4,282.2z"/>
				</g>
				<g>
					<g>
						<path class="st8" d="M180.6,306.6c0,0.1-0.8,0-2.2-0.1s-3.2-0.4-5.2-0.8c-2-0.4-3.8-0.9-5.1-1.2s-2.1-0.7-2.1-0.7
							c0-0.1,3.3,0.6,7.3,1.4C177.4,305.9,180.6,306.5,180.6,306.6z"/>
					</g>
				</g>
				<g>
					<g>
						<path class="st8" d="M212.2,437.8c0,0.1-5.3,0.3-11.9,0.3c-6.6,0-11.9-0.1-11.9-0.3c0-0.1,5.3-0.3,11.9-0.3
							C206.9,437.6,212.2,437.7,212.2,437.8z"/>
					</g>
				</g>
				<g>
					<g>
						<path class="st8" d="M177.1,442.3c0,0.1-5.2,0.3-11.5,0.3c-6.4,0-11.5-0.1-11.5-0.3c0-0.1,5.2-0.3,11.5-0.3
							C172,442,177.1,442.1,177.1,442.3z"/>
					</g>
				</g>
				<g>
					<g>
						<path class="st8" d="M174.1,441.9c-0.1,0-0.8-30.7-1.4-68.5c-0.6-37.8-1-68.5-0.9-68.5c0.1,0,0.8,30.7,1.4,68.5
							C173.8,411.2,174.2,441.9,174.1,441.9z"/>
					</g>
				</g>
				<g>
					<g>
						<path class="st8" d="M209.1,437.8c0,0,0-0.1,0-0.4c0-0.3,0-0.7,0-1.2c0-1.1,0.1-2.6,0.1-4.6c0.1-4,0.3-9.8,0.6-16.9
							c0.5-14.3,1.3-34.1,2.1-55.8c0-0.2,0-0.4,0-0.6l0,0.1c-5.3-21-10-40.1-13.4-53.9c-1.7-6.9-3.1-12.4-4-16.3
							c-0.5-1.9-0.8-3.4-1.1-4.4c-0.1-0.5-0.2-0.9-0.3-1.2c-0.1-0.3-0.1-0.4-0.1-0.4c0,0,0.1,0.1,0.1,0.4c0.1,0.3,0.2,0.7,0.3,1.1
							c0.3,1,0.7,2.5,1.2,4.4c1,3.9,2.4,9.4,4.2,16.3c3.5,13.8,8.3,32.8,13.6,53.8l0,0l0,0c0,0.2,0,0.4,0,0.6
							c-0.9,21.8-1.7,41.5-2.3,55.8c-0.3,7.1-0.6,12.9-0.8,16.9c-0.1,2-0.2,3.5-0.2,4.6c0,0.5-0.1,0.9-0.1,1.2
							C209.1,437.7,209.1,437.8,209.1,437.8z"/>
					</g>
				</g>
				<g>
					<g>
						<path class="st8" d="M201.4,356.5c0,0.1-2.3,0.7-5.2,1.2c-2.2,0.4-4,0.6-4.8,0.7l0-0.2c0.3,0.1,0.4,0.1,0.4,0.2
							c0,0-0.2,0-0.4,0l-0.6,0l0.6-0.2c0.8-0.2,2.6-0.6,4.8-1C199,356.6,201.4,356.4,201.4,356.5z"/>
					</g>
				</g>
				<g>
					<g>
						<path class="st8" d="M201,359.4c0,0.1-2.1,0-4.7-0.2c-2.6-0.2-4.6-0.4-4.6-0.5c0-0.1,2.1-0.2,4.7,0
							C198.9,358.8,201,359.2,201,359.4z"/>
					</g>
				</g>
				<g>
					<path class="st14" d="M152.2,283.8c1.1,1.5,2.6,2,4.4,2.3c1.8,0.3,3.6,0.1,5.4-0.1c11.4-1.3,23.6-2.4,34.8-5.2
						c-14.5,0.8-29.8,0.5-44.3,1.4c0,0-0.1,1-0.2,1.2"/>
				</g>
				<g class="st14">
					<polygon points="167.1,304.2 175.3,335.9 174.7,305.6 					"/>
				</g>
			</g>
		</g>
	</g>
</g>
</svg>
